<svg width="54" height="40" viewBox="0 0 54 40" fill="none" xmlns="http://www.w3.org/2000/svg">
<g id="Group">
<path id="Vector" d="M19.498 36.8254H29.731V40H16.3866V0H19.498V36.8254Z" fill="#3B1D8F"/>
<path id="Vector_2" d="M3.1114 0H0V40H3.1114V0Z" fill="#3B1D8F"/>
<path id="Vector_3" d="M35.2627 20.0353C35.2627 29.2769 42.6609 36.8254 51.7185 36.8254V40C40.8632 40 32.0822 31.0406 32.0822 20.0353C32.1513 8.95944 40.9323 0 51.7877 0V3.1746C42.6609 3.1746 35.2627 10.7231 35.2627 20.0353Z" fill="#3B1D8F"/>
<path id="Vector_4" d="M54.0003 19.9648C54.0003 21.2346 53.0323 22.2223 51.7877 22.2223C50.5432 22.2223 49.5752 21.2346 49.5752 19.9648C49.5752 18.6949 50.5432 17.7073 51.7877 17.7073C52.9632 17.7073 54.0003 18.7655 54.0003 19.9648Z" fill="#3B1D8F"/>
</g>
</svg>
